Coordinates
version=1
nRows=13
nColumns=40
inDegrees=yes

Units are S.I. units (second, meters, Newtons, ...)
Angles are in degrees.

endheader
time	pelvis_tilt	pelvis_list	pelvis_rotation	pelvis_tx	pelvis_ty	pelvis_tz	hip_flexion_r	hip_adduction_r	hip_rotation_r	knee_angle_r	knee_angle_r_beta	ankle_angle_r	subtalar_angle_r	mtp_angle_r	hip_flexion_l	hip_adduction_l	hip_rotation_l	knee_angle_l	knee_angle_l_beta	ankle_angle_l	subtalar_angle_l	mtp_angle_l	lumbar_extension	lumbar_bending	lumbar_rotation	arm_flex_r	arm_add_r	arm_rot_r	elbow_flex_r	pro_sup_r	wrist_flex_r	wrist_dev_r	arm_flex_l	arm_add_l	arm_rot_l	elbow_flex_l	pro_sup_l	wrist_flex_l	wrist_dev_l
      4.00128571	     -3.29016595	     -4.05106461	      7.85583614	      1.06628757	      0.93313432	      0.49789424	      9.31150066	      2.65778231	    -14.68182225	     13.77925783	     13.77925783	     10.16828516	      1.15260376	     -6.94974227	     33.82876263	     -9.67661432	      0.63783665	     33.39527283	     33.39527283	      8.90977952	    -15.83332231	      9.84342372	    -11.24532945	      5.57695560	      1.87430077	     26.84932399	    -20.82667864	     -0.13257508	     72.09826914	     44.92016887	      0.00000000	      0.00000000	      4.47973147	    -12.06024532	    -14.09276870	     31.76092183	     47.43151878	      0.00000000	      0.00000000
      4.01507143	     -3.42087611	     -4.12250729	      8.01447310	      1.06507026	      0.93283999	      0.49794548	      8.98782330	      2.79403074	    -14.84392234	     13.47340344	     13.47340344	     10.36144690	      1.26749294	     -6.99799653	     34.06293308	     -9.44334751	      0.61918981	     30.36034157	     30.36034157	      8.66603602	    -14.42362368	     10.24614254	    -11.23860475	      5.61803623	      2.01943546	     28.09237284	    -20.42578102	     -0.24610060	     73.06777322	     44.90181203	      0.00000000	      0.00000000	      3.87889846	    -12.18940778	    -14.17785667	     31.23286563	     47.42441305	      0.00000000	      0.00000000
      4.02885714	     -3.49644702	     -4.25478584	      8.12733937	      1.06401369	      0.93252792	      0.49789530	      8.59976852	      2.98613075	    -15.04846481	     13.15628619	     13.15628619	     10.53915759	      1.64711507	     -7.07874558	     34.25009851	     -9.30734688	      0.65634626	     27.68603211	     27.68603211	      8.41493755	    -12.77844829	     10.47840945	    -11.28128933	      5.74141679	      2.09654931	     29.33209102	    -19.91456554	     -0.27628962	     74.14009941	     44.87865955	      0.00000000	      0.00000000	      3.30140408	    -12.28116859	    -14.27289267	     30.56586882	     47.41703694	      0.00000000	      0.00000000
      4.04264286	     -3.65254459	     -4.42287670	      8.19036639	      1.06305682	      0.93202999	      0.49772289	      8.35243453	      3.19238657	    -15.19528208	     12.94464456	     12.94464456	     10.76083945	      1.86644868	     -7.17030406	     34.54962509	     -9.20849129	      0.72703458	     25.42374927	     25.42374927	      8.06488628	    -11.27630704	     10.79021495	    -11.17977551	      5.90450012	      2.42961290	     30.41016357	    -19.59191057	     -0.28335298	     74.85745995	     44.86284252	      0.00000000	      0.00000000	      2.80934586	    -12.24253261	    -14.31485007	     30.14235520	     47.40946832	      0.00000000	      0.00000000
      4.05642857	     -3.62097670	     -4.56496023	      8.18507063	      1.06247406	      0.93183736	      0.49752419	      7.75500534	      3.40878364	    -15.46107271	     12.51047358	     12.51047358	     10.98658343	      2.61141667	     -7.20810842	     34.60967836	     -9.25125220	      0.43422377	     23.57944711	     23.57944711	      7.71336020	     -9.40273337	     10.59821363	    -11.29552792	      6.02636416	      2.40064203	     31.51084319	    -18.81158639	     -0.06560814	     75.84499467	     44.84142912	      0.00000000	      0.00000000	      2.23806263	    -12.33191690	    -14.52066708	     29.25071364	     47.40831085	      0.00000000	      0.00000000
      4.07021429	     -3.76336276	     -4.77636684	      8.10471579	      1.06187168	      0.93124789	      0.49726027	      7.53774755	      3.65903805	    -15.42070842	     12.41954641	     12.41954641	     11.24173146	      2.75669549	     -7.30433255	     34.90424813	     -9.26887870	      0.48046959	     22.22161959	     22.22161959	      7.25580167	     -8.47299534	     10.89187118	    -11.16158004	      6.21976097	      2.94825505	     32.37230913	    -18.55152708	     -0.04085060	     76.24888254	     44.83286180	      0.00000000	      0.00000000	      1.79559585	    -12.24630863	    -14.55331488	     29.01364877	     47.40252719	      0.00000000	      0.00000000
      4.08400000	     -3.68586166	     -4.75297353	      8.01585562	      1.06181909	      0.93122655	      0.49677766	      6.83550777	      3.71928940	    -15.41902790	     11.99457542	     11.99457542	     11.49779186	      3.17994465	     -7.25573064	     34.71291740	     -9.19075124	     -0.00315235	     21.05903468	     21.05903468	      6.78863584	     -7.25373586	     10.83125063	    -11.25822554	      6.14724247	      2.93901977	     33.13483030	    -17.65736994	      0.23186229	     76.85639604	     44.81386457	      0.00000000	      0.00000000	      1.14255984	    -12.29963337	    -14.65473369	     28.54125058	     47.39535938	      0.00000000	      0.00000000
      4.09778571	     -3.68023641	     -4.88867911	      7.88092634	      1.06191497	      0.93087003	      0.49620159	      6.27189470	      3.91918269	    -15.40492347	     11.66151912	     11.66151912	     11.78181702	      3.61386748	     -7.20075745	     34.70243875	     -9.25368494	     -0.36530266	     20.49232206	     20.49232206	      6.26332516	     -6.57178674	     10.50369551	    -11.21985832	      6.25503355	      3.09689993	     33.87945325	    -16.94680185	      0.58591774	     77.10725907	     44.80631366	      0.00000000	      0.00000000	      0.52114714	    -12.22959248	    -14.80559213	     28.24850748	     47.39292455	      0.00000000	      0.00000000
      4.11157143	     -3.73954926	     -5.01420820	      7.67817802	      1.06218076	      0.93034492	      0.49550646	      5.88258032	      4.06932062	    -15.23476839	     11.56229651	     11.56229651	     12.10618876	      3.80753277	     -7.27542566	     34.70851656	     -9.28847673	     -0.66245538	     20.34097851	     20.34097851	      5.80945141	     -6.50350633	     10.56227667	    -11.05114931	      6.33289743	      3.58840862	     34.26000023	    -16.54532818	      0.75425425	     77.26319051	     44.79906321	      0.00000000	      0.00000000	      0.08587607	    -12.10609816	    -14.84686647	     28.09119785	     47.38847576	      0.00000000	      0.00000000
      4.12535714	     -3.60950265	     -5.13803900	      7.50485628	      1.06297355	      0.93010488	      0.49462452	      5.04894691	      4.27648801	    -15.17949028	     11.06946359	     11.06946359	     12.40289375	      4.35501932	     -7.10386236	     34.32018743	     -9.36583982	     -1.09131973	     20.32612083	     20.32612083	      5.18775155	     -6.45165207	      9.86301633	    -11.05796455	      6.42192671	      3.45224572	     34.82442272	    -15.63137961	      1.39423960	     77.39973389	     44.78523708	      0.00000000	      0.00000000	     -0.70546298	    -12.06850067	    -15.05543831	     27.89882799	     47.39366959	      0.00000000	      0.00000000
      4.13914286	     -3.67688964	     -5.23765293	      7.31036603	      1.06379374	      0.92940759	      0.49352612	      4.66635820	      4.35984811	    -15.03172991	     11.05519622	     11.05519622	     12.79707212	      4.44335777	     -7.21407330	     34.06191190	     -9.35870704	     -1.46395854	     20.57697989	     20.57697989	      4.77963531	     -6.69198417	      9.92662641	    -10.79527303	      6.48733996	      3.92052674	     34.85113307	    -15.33220673	      1.55751254	     77.41357846	     44.78020665	      0.00000000	      0.00000000	     -1.05975645	    -11.95033755	    -15.08433444	     27.80193527	     47.39026067	      0.00000000	      0.00000000
      4.15292857	     -3.58789929	     -5.31875656	      6.95507513	      1.06508006	      0.92879205	      0.49241229	      4.02724457	      4.44499217	    -14.69453582	     10.94172453	     10.94172453	     13.15872852	      4.78334079	     -7.22729110	     33.55855646	     -9.41660254	     -1.84961476	     21.17169492	     21.17169492	      4.44981847	     -7.30854132	      9.67301484	    -10.65395032	      6.45683071	      4.27681652	     34.81749270	    -14.79361712	      1.97142402	     77.40857802	     44.76900042	      0.00000000	      0.00000000	     -1.54995194	    -11.75184862	    -15.15506606	     27.71404304	     47.38799824	      0.00000000	      0.00000000
      4.16671429	     -3.58656381	     -5.43981004	      6.65931828	      1.06653664	      0.92798310	      0.49100545	      3.50771610	      4.52749248	    -14.45500195	     10.89859673	     10.89859673	     13.56570592	      4.99060965	     -7.29637999	     32.94968360	     -9.44658238	     -2.15318496	     21.62865792	     21.62865792	      4.16504781	     -7.75673046	      9.57818488	    -10.40316683	      6.54661772	      4.58955831	     34.59763689	    -14.41977731	      2.27854619	     77.36847702	     44.76042567	      0.00000000	      0.00000000	     -1.99807635	    -11.60446589	    -15.20349075	     27.61329987	     47.38509413	      0.00000000	      0.00000000
